<?xml version="1.0" encoding="UTF-8"?>
<mxfile host="app.diagrams.net" modified="2023-03-27T14:12:46.918Z" agent="Mozilla/5.0 (Windows NT 10.0; Win64; x64) AppleWebKit/537.36 (KHTML, like Gecko) Chrome/106.0.0.0 Safari/537.36" etag="_KamZB1XBxUqlwt50MxM" version="21.1.1" type="google">
  <diagram name="Page-1" id="jVeumEDIqo2_1SkD7Eaa">
    <mxGraphModel dx="1434" dy="796" grid="1" gridSize="10" guides="1" tooltips="1" connect="1" arrows="1" fold="1" page="1" pageScale="1" pageWidth="827" pageHeight="1169" math="0" shadow="0">
      <root>
        <mxCell id="0" />
        <mxCell id="1" parent="0" />
        <mxCell id="i75TLgCOhW5WDVC72vcy-1" value="SiteVisitor" style="shape=umlActor;verticalLabelPosition=bottom;verticalAlign=top;html=1;outlineConnect=0;" parent="1" vertex="1">
          <mxGeometry x="40" y="106.86" width="30" height="60" as="geometry" />
        </mxCell>
        <mxCell id="i75TLgCOhW5WDVC72vcy-39" value="Server" style="shape=umlActor;verticalLabelPosition=bottom;verticalAlign=top;html=1;" parent="1" vertex="1">
          <mxGeometry x="760" y="105.86" width="30" height="60" as="geometry" />
        </mxCell>
        <mxCell id="i75TLgCOhW5WDVC72vcy-107" value="" style="group" parent="1" connectable="0" vertex="1">
          <mxGeometry x="140" y="40" width="610" height="490" as="geometry" />
        </mxCell>
        <mxCell id="i75TLgCOhW5WDVC72vcy-108" value="" style="verticalLabelPosition=bottom;verticalAlign=top;html=1;shape=mxgraph.basic.rect;fillColor2=none;strokeWidth=1;size=22;indent=0;fillColor=#f5f5f5;fontColor=#333333;strokeColor=#666666;" parent="i75TLgCOhW5WDVC72vcy-107" vertex="1">
          <mxGeometry width="514.313725490196" height="490.00000000000006" as="geometry" />
        </mxCell>
        <mxCell id="i75TLgCOhW5WDVC72vcy-109" value="&lt;b style=&quot;border-color: var(--border-color);&quot;&gt;UC 1.1 - Enter Market&lt;/b&gt;" style="text;html=1;align=center;verticalAlign=middle;resizable=0;points=[];autosize=1;strokeColor=none;fillColor=none;fontStyle=4" parent="i75TLgCOhW5WDVC72vcy-107" vertex="1">
          <mxGeometry x="-5" width="140" height="30" as="geometry" />
        </mxCell>
        <mxCell id="i75TLgCOhW5WDVC72vcy-110" value="Enter Market" style="ellipse;whiteSpace=wrap;html=1;fillColor=#fff2cc;strokeColor=#d6b656;" parent="i75TLgCOhW5WDVC72vcy-107" vertex="1">
          <mxGeometry x="47.843137254901954" y="56.97674418604651" width="167.45098039215685" height="79.76744186046511" as="geometry" />
        </mxCell>
        <mxCell id="i75TLgCOhW5WDVC72vcy-111" value="Set User As SiteVisitor" style="ellipse;whiteSpace=wrap;html=1;fillColor=#fff2cc;strokeColor=#d6b656;" parent="i75TLgCOhW5WDVC72vcy-107" vertex="1">
          <mxGeometry x="308.09803921568624" y="55.97674418604651" width="167.45098039215685" height="79.76744186046511" as="geometry" />
        </mxCell>
        <mxCell id="i75TLgCOhW5WDVC72vcy-113" value="" style="endArrow=block;endSize=16;endFill=0;html=1;rounded=0;dashed=1;" parent="i75TLgCOhW5WDVC72vcy-107" source="i75TLgCOhW5WDVC72vcy-110" target="i75TLgCOhW5WDVC72vcy-111" edge="1">
          <mxGeometry y="60" width="160" relative="1" as="geometry">
            <mxPoint x="191.37254901960782" y="148.13953488372093" as="sourcePoint" />
            <mxPoint x="382.74509803921563" y="148.13953488372093" as="targetPoint" />
            <mxPoint as="offset" />
          </mxGeometry>
        </mxCell>
        <mxCell id="i75TLgCOhW5WDVC72vcy-116" value="&amp;lt;&amp;lt;include&amp;gt;&amp;gt;" style="text;html=1;align=center;verticalAlign=middle;resizable=0;points=[];autosize=1;strokeColor=none;fillColor=none;" parent="i75TLgCOhW5WDVC72vcy-107" vertex="1">
          <mxGeometry x="210.0021568627451" y="69.99674418604651" width="90" height="30" as="geometry" />
        </mxCell>
        <mxCell id="i75TLgCOhW5WDVC72vcy-117" value="Create Cart" style="ellipse;whiteSpace=wrap;html=1;fillColor=#fff2cc;strokeColor=#d6b656;" parent="i75TLgCOhW5WDVC72vcy-107" vertex="1">
          <mxGeometry x="47.84803921568627" y="204.1167441860465" width="167.45098039215685" height="79.76744186046511" as="geometry" />
        </mxCell>
        <mxCell id="i75TLgCOhW5WDVC72vcy-118" value="" style="endArrow=block;endSize=16;endFill=0;html=1;rounded=0;exitX=0.5;exitY=1;exitDx=0;exitDy=0;dashed=1;" parent="i75TLgCOhW5WDVC72vcy-107" source="i75TLgCOhW5WDVC72vcy-110" target="i75TLgCOhW5WDVC72vcy-117" edge="1">
          <mxGeometry y="60" width="160" relative="1" as="geometry">
            <mxPoint x="225" y="107" as="sourcePoint" />
            <mxPoint x="318" y="106" as="targetPoint" />
            <mxPoint as="offset" />
          </mxGeometry>
        </mxCell>
        <mxCell id="i75TLgCOhW5WDVC72vcy-119" value="&amp;lt;&amp;lt;include&amp;gt;&amp;gt;" style="text;html=1;align=center;verticalAlign=middle;resizable=0;points=[];autosize=1;strokeColor=none;fillColor=none;" parent="i75TLgCOhW5WDVC72vcy-107" vertex="1">
          <mxGeometry x="130.0021568627451" y="136.7467441860465" width="90" height="30" as="geometry" />
        </mxCell>
        <mxCell id="i75TLgCOhW5WDVC72vcy-42" value="" style="endArrow=none;html=1;rounded=0;entryX=0.5;entryY=0.5;entryDx=0;entryDy=0;entryPerimeter=0;" parent="1" source="i75TLgCOhW5WDVC72vcy-111" target="i75TLgCOhW5WDVC72vcy-39" edge="1">
          <mxGeometry width="50" height="50" relative="1" as="geometry">
            <mxPoint x="780" y="450" as="sourcePoint" />
            <mxPoint x="1043" y="179" as="targetPoint" />
          </mxGeometry>
        </mxCell>
        <mxCell id="i75TLgCOhW5WDVC72vcy-8" value="" style="edgeStyle=orthogonalEdgeStyle;rounded=0;orthogonalLoop=1;jettySize=auto;html=1;" parent="1" source="i75TLgCOhW5WDVC72vcy-1" target="i75TLgCOhW5WDVC72vcy-110" edge="1">
          <mxGeometry relative="1" as="geometry">
            <mxPoint x="220" y="160" as="targetPoint" />
          </mxGeometry>
        </mxCell>
        <mxCell id="i75TLgCOhW5WDVC72vcy-121" value="SiteVisitor" style="shape=umlActor;verticalLabelPosition=bottom;verticalAlign=top;html=1;outlineConnect=0;" parent="1" vertex="1">
          <mxGeometry x="38" y="636.86" width="30" height="60" as="geometry" />
        </mxCell>
        <mxCell id="i75TLgCOhW5WDVC72vcy-122" value="Server" style="shape=umlActor;verticalLabelPosition=bottom;verticalAlign=top;html=1;" parent="1" vertex="1">
          <mxGeometry x="758" y="635.86" width="30" height="60" as="geometry" />
        </mxCell>
        <mxCell id="i75TLgCOhW5WDVC72vcy-123" value="" style="group" parent="1" connectable="0" vertex="1">
          <mxGeometry x="138" y="570" width="610" height="490" as="geometry" />
        </mxCell>
        <mxCell id="i75TLgCOhW5WDVC72vcy-124" value="" style="verticalLabelPosition=bottom;verticalAlign=top;html=1;shape=mxgraph.basic.rect;fillColor2=none;strokeWidth=1;size=22;indent=0;fillColor=#f5f5f5;fontColor=#333333;strokeColor=#666666;" parent="i75TLgCOhW5WDVC72vcy-123" vertex="1">
          <mxGeometry width="514.313725490196" height="490.00000000000006" as="geometry" />
        </mxCell>
        <mxCell id="i75TLgCOhW5WDVC72vcy-125" value="&lt;b style=&quot;border-color: var(--border-color);&quot;&gt;UC 1.2 - Quit Market&lt;/b&gt;" style="text;html=1;align=center;verticalAlign=middle;resizable=0;points=[];autosize=1;strokeColor=none;fillColor=none;fontStyle=4" parent="i75TLgCOhW5WDVC72vcy-123" vertex="1">
          <mxGeometry x="-5" width="140" height="30" as="geometry" />
        </mxCell>
        <mxCell id="i75TLgCOhW5WDVC72vcy-126" value="Quit Market" style="ellipse;whiteSpace=wrap;html=1;fillColor=#fff2cc;strokeColor=#d6b656;" parent="i75TLgCOhW5WDVC72vcy-123" vertex="1">
          <mxGeometry x="47.843137254901954" y="56.97674418604651" width="167.45098039215685" height="79.76744186046511" as="geometry" />
        </mxCell>
        <mxCell id="i75TLgCOhW5WDVC72vcy-127" value="Remove Visitor" style="ellipse;whiteSpace=wrap;html=1;fillColor=#fff2cc;strokeColor=#d6b656;" parent="i75TLgCOhW5WDVC72vcy-123" vertex="1">
          <mxGeometry x="308.09803921568624" y="55.97674418604651" width="167.45098039215685" height="79.76744186046511" as="geometry" />
        </mxCell>
        <mxCell id="i75TLgCOhW5WDVC72vcy-129" value="" style="endArrow=block;endSize=16;endFill=0;html=1;rounded=0;dashed=1;" parent="i75TLgCOhW5WDVC72vcy-123" source="i75TLgCOhW5WDVC72vcy-126" target="i75TLgCOhW5WDVC72vcy-127" edge="1">
          <mxGeometry y="60" width="160" relative="1" as="geometry">
            <mxPoint x="191.37254901960782" y="148.13953488372093" as="sourcePoint" />
            <mxPoint x="382.74509803921563" y="148.13953488372093" as="targetPoint" />
            <mxPoint as="offset" />
          </mxGeometry>
        </mxCell>
        <mxCell id="i75TLgCOhW5WDVC72vcy-132" value="&amp;lt;&amp;lt;include&amp;gt;&amp;gt;" style="text;html=1;align=center;verticalAlign=middle;resizable=0;points=[];autosize=1;strokeColor=none;fillColor=none;" parent="i75TLgCOhW5WDVC72vcy-123" vertex="1">
          <mxGeometry x="210.0021568627451" y="69.99674418604651" width="90" height="30" as="geometry" />
        </mxCell>
        <mxCell id="i75TLgCOhW5WDVC72vcy-133" value="Delete Cart" style="ellipse;whiteSpace=wrap;html=1;fillColor=#fff2cc;strokeColor=#d6b656;" parent="i75TLgCOhW5WDVC72vcy-123" vertex="1">
          <mxGeometry x="47.84803921568627" y="204.1167441860465" width="167.45098039215685" height="79.76744186046511" as="geometry" />
        </mxCell>
        <mxCell id="i75TLgCOhW5WDVC72vcy-134" value="" style="endArrow=block;endSize=16;endFill=0;html=1;rounded=0;exitX=0.5;exitY=1;exitDx=0;exitDy=0;dashed=1;" parent="i75TLgCOhW5WDVC72vcy-123" source="i75TLgCOhW5WDVC72vcy-126" target="i75TLgCOhW5WDVC72vcy-133" edge="1">
          <mxGeometry y="60" width="160" relative="1" as="geometry">
            <mxPoint x="225" y="107" as="sourcePoint" />
            <mxPoint x="318" y="106" as="targetPoint" />
            <mxPoint as="offset" />
          </mxGeometry>
        </mxCell>
        <mxCell id="i75TLgCOhW5WDVC72vcy-135" value="&amp;lt;&amp;lt;include&amp;gt;&amp;gt;" style="text;html=1;align=center;verticalAlign=middle;resizable=0;points=[];autosize=1;strokeColor=none;fillColor=none;" parent="i75TLgCOhW5WDVC72vcy-123" vertex="1">
          <mxGeometry x="130.0021568627451" y="136.7467441860465" width="90" height="30" as="geometry" />
        </mxCell>
        <mxCell id="i75TLgCOhW5WDVC72vcy-136" value="" style="endArrow=none;html=1;rounded=0;entryX=0.5;entryY=0.5;entryDx=0;entryDy=0;entryPerimeter=0;" parent="1" source="i75TLgCOhW5WDVC72vcy-127" target="i75TLgCOhW5WDVC72vcy-122" edge="1">
          <mxGeometry width="50" height="50" relative="1" as="geometry">
            <mxPoint x="778" y="980" as="sourcePoint" />
            <mxPoint x="1041" y="709" as="targetPoint" />
          </mxGeometry>
        </mxCell>
        <mxCell id="i75TLgCOhW5WDVC72vcy-137" value="" style="edgeStyle=orthogonalEdgeStyle;rounded=0;orthogonalLoop=1;jettySize=auto;html=1;" parent="1" source="i75TLgCOhW5WDVC72vcy-121" target="i75TLgCOhW5WDVC72vcy-126" edge="1">
          <mxGeometry relative="1" as="geometry">
            <mxPoint x="218" y="690" as="targetPoint" />
          </mxGeometry>
        </mxCell>
        <mxCell id="i75TLgCOhW5WDVC72vcy-138" value="SiteVisitor" style="shape=umlActor;verticalLabelPosition=bottom;verticalAlign=top;html=1;outlineConnect=0;" parent="1" vertex="1">
          <mxGeometry x="39" y="1256.8600000000001" width="30" height="60" as="geometry" />
        </mxCell>
        <mxCell id="i75TLgCOhW5WDVC72vcy-139" value="Server" style="shape=umlActor;verticalLabelPosition=bottom;verticalAlign=top;html=1;" parent="1" vertex="1">
          <mxGeometry x="759" y="1255.8600000000001" width="30" height="60" as="geometry" />
        </mxCell>
        <mxCell id="i75TLgCOhW5WDVC72vcy-140" value="" style="group" parent="1" connectable="0" vertex="1">
          <mxGeometry x="139" y="1190" width="610" height="490" as="geometry" />
        </mxCell>
        <mxCell id="i75TLgCOhW5WDVC72vcy-141" value="" style="verticalLabelPosition=bottom;verticalAlign=top;html=1;shape=mxgraph.basic.rect;fillColor2=none;strokeWidth=1;size=22;indent=0;fillColor=#f5f5f5;fontColor=#333333;strokeColor=#666666;" parent="i75TLgCOhW5WDVC72vcy-140" vertex="1">
          <mxGeometry width="514.313725490196" height="490.00000000000006" as="geometry" />
        </mxCell>
        <mxCell id="i75TLgCOhW5WDVC72vcy-142" value="&lt;b style=&quot;border-color: var(--border-color);&quot;&gt;UC 1.3 - Register To System&lt;/b&gt;" style="text;html=1;align=center;verticalAlign=middle;resizable=0;points=[];autosize=1;strokeColor=none;fillColor=none;fontStyle=4" parent="i75TLgCOhW5WDVC72vcy-140" vertex="1">
          <mxGeometry x="4" width="180" height="30" as="geometry" />
        </mxCell>
        <mxCell id="i75TLgCOhW5WDVC72vcy-143" value="Register" style="ellipse;whiteSpace=wrap;html=1;fillColor=#fff2cc;strokeColor=#d6b656;" parent="i75TLgCOhW5WDVC72vcy-140" vertex="1">
          <mxGeometry x="47.843137254901954" y="56.97674418604651" width="167.45098039215685" height="79.76744186046511" as="geometry" />
        </mxCell>
        <mxCell id="i75TLgCOhW5WDVC72vcy-144" value="Process Registration" style="ellipse;whiteSpace=wrap;html=1;fillColor=#fff2cc;strokeColor=#d6b656;" parent="i75TLgCOhW5WDVC72vcy-140" vertex="1">
          <mxGeometry x="308.09803921568624" y="55.97674418604651" width="167.45098039215685" height="79.76744186046511" as="geometry" />
        </mxCell>
        <mxCell id="i75TLgCOhW5WDVC72vcy-146" value="" style="endArrow=block;endSize=16;endFill=0;html=1;rounded=0;dashed=1;" parent="i75TLgCOhW5WDVC72vcy-140" source="i75TLgCOhW5WDVC72vcy-143" target="i75TLgCOhW5WDVC72vcy-144" edge="1">
          <mxGeometry y="60" width="160" relative="1" as="geometry">
            <mxPoint x="191.37254901960782" y="148.13953488372093" as="sourcePoint" />
            <mxPoint x="382.74509803921563" y="148.13953488372093" as="targetPoint" />
            <mxPoint as="offset" />
          </mxGeometry>
        </mxCell>
        <mxCell id="i75TLgCOhW5WDVC72vcy-149" value="&amp;lt;&amp;lt;include&amp;gt;&amp;gt;" style="text;html=1;align=center;verticalAlign=middle;resizable=0;points=[];autosize=1;strokeColor=none;fillColor=none;" parent="i75TLgCOhW5WDVC72vcy-140" vertex="1">
          <mxGeometry x="210.0021568627451" y="69.99674418604651" width="90" height="30" as="geometry" />
        </mxCell>
        <mxCell id="i75TLgCOhW5WDVC72vcy-150" value="Reject Attempt To Register&lt;br&gt;And Return Message" style="ellipse;whiteSpace=wrap;html=1;fillColor=#fff2cc;strokeColor=#d6b656;" parent="i75TLgCOhW5WDVC72vcy-140" vertex="1">
          <mxGeometry x="47.84803921568627" y="204.1167441860465" width="167.45098039215685" height="79.76744186046511" as="geometry" />
        </mxCell>
        <mxCell id="i75TLgCOhW5WDVC72vcy-151" value="" style="endArrow=block;endSize=16;endFill=0;html=1;rounded=0;exitX=0.5;exitY=1;exitDx=0;exitDy=0;dashed=1;" parent="i75TLgCOhW5WDVC72vcy-140" source="i75TLgCOhW5WDVC72vcy-143" target="i75TLgCOhW5WDVC72vcy-150" edge="1">
          <mxGeometry y="60" width="160" relative="1" as="geometry">
            <mxPoint x="225" y="107" as="sourcePoint" />
            <mxPoint x="318" y="106" as="targetPoint" />
            <mxPoint as="offset" />
          </mxGeometry>
        </mxCell>
        <mxCell id="i75TLgCOhW5WDVC72vcy-152" value="&amp;lt;&amp;lt;include&amp;gt;&amp;gt;" style="text;html=1;align=center;verticalAlign=middle;resizable=0;points=[];autosize=1;strokeColor=none;fillColor=none;" parent="i75TLgCOhW5WDVC72vcy-140" vertex="1">
          <mxGeometry x="130.0021568627451" y="136.7467441860465" width="90" height="30" as="geometry" />
        </mxCell>
        <mxCell id="i75TLgCOhW5WDVC72vcy-153" value="" style="endArrow=none;html=1;rounded=0;entryX=0.5;entryY=0.5;entryDx=0;entryDy=0;entryPerimeter=0;" parent="1" source="i75TLgCOhW5WDVC72vcy-144" target="i75TLgCOhW5WDVC72vcy-139" edge="1">
          <mxGeometry width="50" height="50" relative="1" as="geometry">
            <mxPoint x="779" y="1600" as="sourcePoint" />
            <mxPoint x="1042" y="1329" as="targetPoint" />
          </mxGeometry>
        </mxCell>
        <mxCell id="i75TLgCOhW5WDVC72vcy-154" value="" style="edgeStyle=orthogonalEdgeStyle;rounded=0;orthogonalLoop=1;jettySize=auto;html=1;" parent="1" source="i75TLgCOhW5WDVC72vcy-138" target="i75TLgCOhW5WDVC72vcy-143" edge="1">
          <mxGeometry relative="1" as="geometry">
            <mxPoint x="219" y="1310" as="targetPoint" />
          </mxGeometry>
        </mxCell>
        <mxCell id="i75TLgCOhW5WDVC72vcy-155" value="SiteVisitor" style="shape=umlActor;verticalLabelPosition=bottom;verticalAlign=top;html=1;outlineConnect=0;" parent="1" vertex="1">
          <mxGeometry x="39" y="1796.8600000000001" width="30" height="60" as="geometry" />
        </mxCell>
        <mxCell id="i75TLgCOhW5WDVC72vcy-156" value="Server" style="shape=umlActor;verticalLabelPosition=bottom;verticalAlign=top;html=1;" parent="1" vertex="1">
          <mxGeometry x="759" y="1795.8600000000001" width="30" height="60" as="geometry" />
        </mxCell>
        <mxCell id="i75TLgCOhW5WDVC72vcy-157" value="" style="group" parent="1" connectable="0" vertex="1">
          <mxGeometry x="139" y="1730" width="610" height="490" as="geometry" />
        </mxCell>
        <mxCell id="i75TLgCOhW5WDVC72vcy-158" value="" style="verticalLabelPosition=bottom;verticalAlign=top;html=1;shape=mxgraph.basic.rect;fillColor2=none;strokeWidth=1;size=22;indent=0;fillColor=#f5f5f5;fontColor=#333333;strokeColor=#666666;" parent="i75TLgCOhW5WDVC72vcy-157" vertex="1">
          <mxGeometry width="514.313725490196" height="490.00000000000006" as="geometry" />
        </mxCell>
        <mxCell id="i75TLgCOhW5WDVC72vcy-160" value="Log In" style="ellipse;whiteSpace=wrap;html=1;fillColor=#fff2cc;strokeColor=#d6b656;" parent="i75TLgCOhW5WDVC72vcy-157" vertex="1">
          <mxGeometry x="47.843137254901954" y="56.97674418604651" width="167.45098039215685" height="79.76744186046511" as="geometry" />
        </mxCell>
        <mxCell id="i75TLgCOhW5WDVC72vcy-161" value="Process Log In" style="ellipse;whiteSpace=wrap;html=1;fillColor=#fff2cc;strokeColor=#d6b656;" parent="i75TLgCOhW5WDVC72vcy-157" vertex="1">
          <mxGeometry x="308.09803921568624" y="55.97674418604651" width="167.45098039215685" height="79.76744186046511" as="geometry" />
        </mxCell>
        <mxCell id="i75TLgCOhW5WDVC72vcy-163" value="" style="endArrow=block;endSize=16;endFill=0;html=1;rounded=0;dashed=1;" parent="i75TLgCOhW5WDVC72vcy-157" source="i75TLgCOhW5WDVC72vcy-160" target="i75TLgCOhW5WDVC72vcy-161" edge="1">
          <mxGeometry y="60" width="160" relative="1" as="geometry">
            <mxPoint x="191.37254901960782" y="148.13953488372093" as="sourcePoint" />
            <mxPoint x="382.74509803921563" y="148.13953488372093" as="targetPoint" />
            <mxPoint as="offset" />
          </mxGeometry>
        </mxCell>
        <mxCell id="i75TLgCOhW5WDVC72vcy-166" value="&amp;lt;&amp;lt;include&amp;gt;&amp;gt;" style="text;html=1;align=center;verticalAlign=middle;resizable=0;points=[];autosize=1;strokeColor=none;fillColor=none;" parent="i75TLgCOhW5WDVC72vcy-157" vertex="1">
          <mxGeometry x="210.0021568627451" y="69.99674418604651" width="90" height="30" as="geometry" />
        </mxCell>
        <mxCell id="i75TLgCOhW5WDVC72vcy-167" value="Reject Attempt To Register&lt;br style=&quot;border-color: var(--border-color);&quot;&gt;And Return Message" style="ellipse;whiteSpace=wrap;html=1;fillColor=#fff2cc;strokeColor=#d6b656;" parent="i75TLgCOhW5WDVC72vcy-157" vertex="1">
          <mxGeometry x="47.84803921568627" y="204.1167441860465" width="167.45098039215685" height="79.76744186046511" as="geometry" />
        </mxCell>
        <mxCell id="i75TLgCOhW5WDVC72vcy-168" value="" style="endArrow=block;endSize=16;endFill=0;html=1;rounded=0;exitX=0.5;exitY=1;exitDx=0;exitDy=0;dashed=1;" parent="i75TLgCOhW5WDVC72vcy-157" source="i75TLgCOhW5WDVC72vcy-160" target="i75TLgCOhW5WDVC72vcy-167" edge="1">
          <mxGeometry y="60" width="160" relative="1" as="geometry">
            <mxPoint x="225" y="107" as="sourcePoint" />
            <mxPoint x="318" y="106" as="targetPoint" />
            <mxPoint as="offset" />
          </mxGeometry>
        </mxCell>
        <mxCell id="i75TLgCOhW5WDVC72vcy-169" value="&amp;lt;&amp;lt;include&amp;gt;&amp;gt;" style="text;html=1;align=center;verticalAlign=middle;resizable=0;points=[];autosize=1;strokeColor=none;fillColor=none;" parent="i75TLgCOhW5WDVC72vcy-157" vertex="1">
          <mxGeometry x="130.0021568627451" y="136.7467441860465" width="90" height="30" as="geometry" />
        </mxCell>
        <mxCell id="i75TLgCOhW5WDVC72vcy-170" value="" style="endArrow=none;html=1;rounded=0;entryX=0.5;entryY=0.5;entryDx=0;entryDy=0;entryPerimeter=0;" parent="1" source="i75TLgCOhW5WDVC72vcy-161" target="i75TLgCOhW5WDVC72vcy-156" edge="1">
          <mxGeometry width="50" height="50" relative="1" as="geometry">
            <mxPoint x="779" y="2140" as="sourcePoint" />
            <mxPoint x="1042" y="1869" as="targetPoint" />
          </mxGeometry>
        </mxCell>
        <mxCell id="i75TLgCOhW5WDVC72vcy-171" value="" style="edgeStyle=orthogonalEdgeStyle;rounded=0;orthogonalLoop=1;jettySize=auto;html=1;" parent="1" source="i75TLgCOhW5WDVC72vcy-155" target="i75TLgCOhW5WDVC72vcy-160" edge="1">
          <mxGeometry relative="1" as="geometry">
            <mxPoint x="219" y="1850" as="targetPoint" />
          </mxGeometry>
        </mxCell>
        <mxCell id="i75TLgCOhW5WDVC72vcy-159" value="&lt;b style=&quot;border-color: var(--border-color);&quot;&gt;UC 1.4 - Log In To System&lt;/b&gt;" style="text;html=1;align=center;verticalAlign=middle;resizable=0;points=[];autosize=1;strokeColor=none;fillColor=none;fontStyle=4" parent="1" vertex="1">
          <mxGeometry x="137" y="1730" width="170" height="30" as="geometry" />
        </mxCell>
        <mxCell id="ETb570n_UTWKCLvWql0y-1" style="edgeStyle=orthogonalEdgeStyle;rounded=0;orthogonalLoop=1;jettySize=auto;html=1;" parent="1" source="i75TLgCOhW5WDVC72vcy-150" target="i75TLgCOhW5WDVC72vcy-138" edge="1">
          <mxGeometry relative="1" as="geometry">
            <Array as="points">
              <mxPoint x="121" y="1420" />
              <mxPoint x="121" y="1310" />
            </Array>
          </mxGeometry>
        </mxCell>
        <mxCell id="ETb570n_UTWKCLvWql0y-19" style="edgeStyle=orthogonalEdgeStyle;rounded=0;orthogonalLoop=1;jettySize=auto;html=1;" parent="1" source="i75TLgCOhW5WDVC72vcy-167" edge="1">
          <mxGeometry relative="1" as="geometry">
            <mxPoint x="192" y="1970" as="sourcePoint" />
            <mxPoint x="71" y="1850" as="targetPoint" />
            <Array as="points">
              <mxPoint x="121" y="1970" />
              <mxPoint x="121" y="1850" />
            </Array>
          </mxGeometry>
        </mxCell>
      </root>
    </mxGraphModel>
  </diagram>
</mxfile>
